<mxfile host="app.diagrams.net" modified="2020-08-14T18:23:45.211Z" agent="5.0 (X11; Linux x86_64) AppleWebKit/537.36 (KHTML, like Gecko) Chrome/84.0.4147.105 Safari/537.36" etag="87amYOVOV0vxYP6T8jB8" version="13.6.2" type="github">
  <diagram id="wubgfQ3S9Q1nJijSIR7Q" name="Page-1">
    <mxGraphModel dx="1420" dy="789" grid="1" gridSize="10" guides="1" tooltips="1" connect="1" arrows="1" fold="1" page="1" pageScale="1" pageWidth="850" pageHeight="1100" math="0" shadow="0">
      <root>
        <mxCell id="0" />
        <mxCell id="1" parent="0" />
        <mxCell id="cBh7_KmrogOZhqfkVuFA-25" value="Usuario" style="shape=table;startSize=30;container=1;collapsible=1;childLayout=tableLayout;fixedRows=1;rowLines=0;fontStyle=1;align=center;resizeLast=1;fillColor=#CCCCCC;" vertex="1" parent="1">
          <mxGeometry x="40" y="40" width="180" height="280" as="geometry" />
        </mxCell>
        <mxCell id="cBh7_KmrogOZhqfkVuFA-26" value="" style="shape=partialRectangle;collapsible=0;dropTarget=0;pointerEvents=0;fillColor=none;top=0;left=0;bottom=1;right=0;points=[[0,0.5],[1,0.5]];portConstraint=eastwest;" vertex="1" parent="cBh7_KmrogOZhqfkVuFA-25">
          <mxGeometry y="30" width="180" height="30" as="geometry" />
        </mxCell>
        <mxCell id="cBh7_KmrogOZhqfkVuFA-27" value="PK" style="shape=partialRectangle;connectable=0;fillColor=none;top=0;left=0;bottom=0;right=0;fontStyle=1;overflow=hidden;" vertex="1" parent="cBh7_KmrogOZhqfkVuFA-26">
          <mxGeometry width="30" height="30" as="geometry" />
        </mxCell>
        <mxCell id="cBh7_KmrogOZhqfkVuFA-28" value="ID" style="shape=partialRectangle;connectable=0;fillColor=none;top=0;left=0;bottom=0;right=0;align=left;spacingLeft=6;fontStyle=5;overflow=hidden;" vertex="1" parent="cBh7_KmrogOZhqfkVuFA-26">
          <mxGeometry x="30" width="150" height="30" as="geometry" />
        </mxCell>
        <mxCell id="cBh7_KmrogOZhqfkVuFA-29" value="" style="shape=partialRectangle;collapsible=0;dropTarget=0;pointerEvents=0;fillColor=none;top=0;left=0;bottom=0;right=0;points=[[0,0.5],[1,0.5]];portConstraint=eastwest;" vertex="1" parent="cBh7_KmrogOZhqfkVuFA-25">
          <mxGeometry y="60" width="180" height="30" as="geometry" />
        </mxCell>
        <mxCell id="cBh7_KmrogOZhqfkVuFA-30" value="" style="shape=partialRectangle;connectable=0;fillColor=none;top=0;left=0;bottom=0;right=0;editable=1;overflow=hidden;" vertex="1" parent="cBh7_KmrogOZhqfkVuFA-29">
          <mxGeometry width="30" height="30" as="geometry" />
        </mxCell>
        <mxCell id="cBh7_KmrogOZhqfkVuFA-31" value="nome" style="shape=partialRectangle;connectable=0;fillColor=none;top=0;left=0;bottom=0;right=0;align=left;spacingLeft=6;overflow=hidden;" vertex="1" parent="cBh7_KmrogOZhqfkVuFA-29">
          <mxGeometry x="30" width="150" height="30" as="geometry" />
        </mxCell>
        <mxCell id="cBh7_KmrogOZhqfkVuFA-32" value="" style="shape=partialRectangle;collapsible=0;dropTarget=0;pointerEvents=0;fillColor=none;top=0;left=0;bottom=0;right=0;points=[[0,0.5],[1,0.5]];portConstraint=eastwest;" vertex="1" parent="cBh7_KmrogOZhqfkVuFA-25">
          <mxGeometry y="90" width="180" height="30" as="geometry" />
        </mxCell>
        <mxCell id="cBh7_KmrogOZhqfkVuFA-33" value="" style="shape=partialRectangle;connectable=0;fillColor=none;top=0;left=0;bottom=0;right=0;editable=1;overflow=hidden;" vertex="1" parent="cBh7_KmrogOZhqfkVuFA-32">
          <mxGeometry width="30" height="30" as="geometry" />
        </mxCell>
        <mxCell id="cBh7_KmrogOZhqfkVuFA-34" value="apelido" style="shape=partialRectangle;connectable=0;fillColor=none;top=0;left=0;bottom=0;right=0;align=left;spacingLeft=6;overflow=hidden;" vertex="1" parent="cBh7_KmrogOZhqfkVuFA-32">
          <mxGeometry x="30" width="150" height="30" as="geometry" />
        </mxCell>
        <mxCell id="cBh7_KmrogOZhqfkVuFA-38" value="" style="shape=partialRectangle;collapsible=0;dropTarget=0;pointerEvents=0;fillColor=none;top=0;left=0;bottom=0;right=0;points=[[0,0.5],[1,0.5]];portConstraint=eastwest;" vertex="1" parent="cBh7_KmrogOZhqfkVuFA-25">
          <mxGeometry y="120" width="180" height="30" as="geometry" />
        </mxCell>
        <mxCell id="cBh7_KmrogOZhqfkVuFA-39" value="" style="shape=partialRectangle;connectable=0;fillColor=none;top=0;left=0;bottom=0;right=0;editable=1;overflow=hidden;" vertex="1" parent="cBh7_KmrogOZhqfkVuFA-38">
          <mxGeometry width="30" height="30" as="geometry" />
        </mxCell>
        <mxCell id="cBh7_KmrogOZhqfkVuFA-40" value="idade" style="shape=partialRectangle;connectable=0;fillColor=none;top=0;left=0;bottom=0;right=0;align=left;spacingLeft=6;overflow=hidden;" vertex="1" parent="cBh7_KmrogOZhqfkVuFA-38">
          <mxGeometry x="30" width="150" height="30" as="geometry" />
        </mxCell>
        <mxCell id="cBh7_KmrogOZhqfkVuFA-81" value="" style="shape=partialRectangle;collapsible=0;dropTarget=0;pointerEvents=0;fillColor=none;top=0;left=0;bottom=0;right=0;points=[[0,0.5],[1,0.5]];portConstraint=eastwest;" vertex="1" parent="cBh7_KmrogOZhqfkVuFA-25">
          <mxGeometry y="150" width="180" height="30" as="geometry" />
        </mxCell>
        <mxCell id="cBh7_KmrogOZhqfkVuFA-82" value="" style="shape=partialRectangle;connectable=0;fillColor=none;top=0;left=0;bottom=0;right=0;editable=1;overflow=hidden;" vertex="1" parent="cBh7_KmrogOZhqfkVuFA-81">
          <mxGeometry width="30" height="30" as="geometry" />
        </mxCell>
        <mxCell id="cBh7_KmrogOZhqfkVuFA-83" value="tipo_id" style="shape=partialRectangle;connectable=0;fillColor=none;top=0;left=0;bottom=0;right=0;align=left;spacingLeft=6;overflow=hidden;" vertex="1" parent="cBh7_KmrogOZhqfkVuFA-81">
          <mxGeometry x="30" width="150" height="30" as="geometry" />
        </mxCell>
        <mxCell id="cBh7_KmrogOZhqfkVuFA-84" value="" style="shape=partialRectangle;collapsible=0;dropTarget=0;pointerEvents=0;fillColor=none;top=0;left=0;bottom=0;right=0;points=[[0,0.5],[1,0.5]];portConstraint=eastwest;" vertex="1" parent="cBh7_KmrogOZhqfkVuFA-25">
          <mxGeometry y="180" width="180" height="30" as="geometry" />
        </mxCell>
        <mxCell id="cBh7_KmrogOZhqfkVuFA-85" value="" style="shape=partialRectangle;connectable=0;fillColor=none;top=0;left=0;bottom=0;right=0;editable=1;overflow=hidden;" vertex="1" parent="cBh7_KmrogOZhqfkVuFA-84">
          <mxGeometry width="30" height="30" as="geometry" />
        </mxCell>
        <mxCell id="cBh7_KmrogOZhqfkVuFA-86" value="grupo_id" style="shape=partialRectangle;connectable=0;fillColor=none;top=0;left=0;bottom=0;right=0;align=left;spacingLeft=6;overflow=hidden;" vertex="1" parent="cBh7_KmrogOZhqfkVuFA-84">
          <mxGeometry x="30" width="150" height="30" as="geometry" />
        </mxCell>
        <mxCell id="cBh7_KmrogOZhqfkVuFA-87" value="" style="shape=partialRectangle;collapsible=0;dropTarget=0;pointerEvents=0;fillColor=none;top=0;left=0;bottom=0;right=0;points=[[0,0.5],[1,0.5]];portConstraint=eastwest;" vertex="1" parent="cBh7_KmrogOZhqfkVuFA-25">
          <mxGeometry y="210" width="180" height="30" as="geometry" />
        </mxCell>
        <mxCell id="cBh7_KmrogOZhqfkVuFA-88" value="" style="shape=partialRectangle;connectable=0;fillColor=none;top=0;left=0;bottom=0;right=0;editable=1;overflow=hidden;" vertex="1" parent="cBh7_KmrogOZhqfkVuFA-87">
          <mxGeometry width="30" height="30" as="geometry" />
        </mxCell>
        <mxCell id="cBh7_KmrogOZhqfkVuFA-89" value="distrito_id" style="shape=partialRectangle;connectable=0;fillColor=none;top=0;left=0;bottom=0;right=0;align=left;spacingLeft=6;overflow=hidden;" vertex="1" parent="cBh7_KmrogOZhqfkVuFA-87">
          <mxGeometry x="30" width="150" height="30" as="geometry" />
        </mxCell>
        <mxCell id="cBh7_KmrogOZhqfkVuFA-90" value="" style="shape=partialRectangle;collapsible=0;dropTarget=0;pointerEvents=0;fillColor=none;top=0;left=0;bottom=0;right=0;points=[[0,0.5],[1,0.5]];portConstraint=eastwest;" vertex="1" parent="cBh7_KmrogOZhqfkVuFA-25">
          <mxGeometry y="240" width="180" height="30" as="geometry" />
        </mxCell>
        <mxCell id="cBh7_KmrogOZhqfkVuFA-91" value="" style="shape=partialRectangle;connectable=0;fillColor=none;top=0;left=0;bottom=0;right=0;editable=1;overflow=hidden;" vertex="1" parent="cBh7_KmrogOZhqfkVuFA-90">
          <mxGeometry width="30" height="30" as="geometry" />
        </mxCell>
        <mxCell id="cBh7_KmrogOZhqfkVuFA-92" value="capitulo_id" style="shape=partialRectangle;connectable=0;fillColor=none;top=0;left=0;bottom=0;right=0;align=left;spacingLeft=6;overflow=hidden;" vertex="1" parent="cBh7_KmrogOZhqfkVuFA-90">
          <mxGeometry x="30" width="150" height="30" as="geometry" />
        </mxCell>
        <mxCell id="cBh7_KmrogOZhqfkVuFA-41" value="Tipo" style="shape=table;startSize=30;container=1;collapsible=1;childLayout=tableLayout;fixedRows=1;rowLines=0;fontStyle=1;align=center;resizeLast=1;fillColor=#CCCCCC;" vertex="1" parent="1">
          <mxGeometry x="350" y="40" width="180" height="100" as="geometry" />
        </mxCell>
        <mxCell id="cBh7_KmrogOZhqfkVuFA-42" value="" style="shape=partialRectangle;collapsible=0;dropTarget=0;pointerEvents=0;fillColor=none;top=0;left=0;bottom=1;right=0;points=[[0,0.5],[1,0.5]];portConstraint=eastwest;" vertex="1" parent="cBh7_KmrogOZhqfkVuFA-41">
          <mxGeometry y="30" width="180" height="30" as="geometry" />
        </mxCell>
        <mxCell id="cBh7_KmrogOZhqfkVuFA-43" value="PK" style="shape=partialRectangle;connectable=0;fillColor=none;top=0;left=0;bottom=0;right=0;fontStyle=1;overflow=hidden;" vertex="1" parent="cBh7_KmrogOZhqfkVuFA-42">
          <mxGeometry width="30" height="30" as="geometry" />
        </mxCell>
        <mxCell id="cBh7_KmrogOZhqfkVuFA-44" value="ID" style="shape=partialRectangle;connectable=0;fillColor=none;top=0;left=0;bottom=0;right=0;align=left;spacingLeft=6;fontStyle=5;overflow=hidden;" vertex="1" parent="cBh7_KmrogOZhqfkVuFA-42">
          <mxGeometry x="30" width="150" height="30" as="geometry" />
        </mxCell>
        <mxCell id="cBh7_KmrogOZhqfkVuFA-45" value="" style="shape=partialRectangle;collapsible=0;dropTarget=0;pointerEvents=0;fillColor=none;top=0;left=0;bottom=0;right=0;points=[[0,0.5],[1,0.5]];portConstraint=eastwest;" vertex="1" parent="cBh7_KmrogOZhqfkVuFA-41">
          <mxGeometry y="60" width="180" height="30" as="geometry" />
        </mxCell>
        <mxCell id="cBh7_KmrogOZhqfkVuFA-46" value="" style="shape=partialRectangle;connectable=0;fillColor=none;top=0;left=0;bottom=0;right=0;editable=1;overflow=hidden;" vertex="1" parent="cBh7_KmrogOZhqfkVuFA-45">
          <mxGeometry width="30" height="30" as="geometry" />
        </mxCell>
        <mxCell id="cBh7_KmrogOZhqfkVuFA-47" value="descricao" style="shape=partialRectangle;connectable=0;fillColor=none;top=0;left=0;bottom=0;right=0;align=left;spacingLeft=6;overflow=hidden;" vertex="1" parent="cBh7_KmrogOZhqfkVuFA-45">
          <mxGeometry x="30" width="150" height="30" as="geometry" />
        </mxCell>
        <mxCell id="cBh7_KmrogOZhqfkVuFA-94" value="" style="edgeStyle=entityRelationEdgeStyle;fontSize=12;html=1;endArrow=ERmandOne;startArrow=ERmandOne;exitX=1;exitY=0.5;exitDx=0;exitDy=0;" edge="1" parent="1" source="cBh7_KmrogOZhqfkVuFA-81" target="cBh7_KmrogOZhqfkVuFA-42">
          <mxGeometry width="100" height="100" relative="1" as="geometry">
            <mxPoint x="80" y="750" as="sourcePoint" />
            <mxPoint x="180" y="650" as="targetPoint" />
          </mxGeometry>
        </mxCell>
        <mxCell id="cBh7_KmrogOZhqfkVuFA-95" value="" style="edgeStyle=entityRelationEdgeStyle;fontSize=12;html=1;endArrow=ERzeroToOne;startArrow=ERmandOne;exitX=1;exitY=0.5;exitDx=0;exitDy=0;entryX=0;entryY=0.5;entryDx=0;entryDy=0;" edge="1" parent="1" source="cBh7_KmrogOZhqfkVuFA-84" target="cBh7_KmrogOZhqfkVuFA-55">
          <mxGeometry width="100" height="100" relative="1" as="geometry">
            <mxPoint x="240" y="760" as="sourcePoint" />
            <mxPoint x="340" y="660" as="targetPoint" />
          </mxGeometry>
        </mxCell>
        <mxCell id="cBh7_KmrogOZhqfkVuFA-96" value="" style="edgeStyle=entityRelationEdgeStyle;fontSize=12;html=1;endArrow=ERzeroToOne;startArrow=ERmandOne;exitX=1;exitY=0.5;exitDx=0;exitDy=0;" edge="1" parent="1" source="cBh7_KmrogOZhqfkVuFA-87" target="cBh7_KmrogOZhqfkVuFA-68">
          <mxGeometry width="100" height="100" relative="1" as="geometry">
            <mxPoint x="120" y="390" as="sourcePoint" />
            <mxPoint x="250" y="380" as="targetPoint" />
          </mxGeometry>
        </mxCell>
        <mxCell id="cBh7_KmrogOZhqfkVuFA-97" value="" style="edgeStyle=entityRelationEdgeStyle;fontSize=12;html=1;endArrow=ERzeroToOne;startArrow=ERmandOne;exitX=1;exitY=0.5;exitDx=0;exitDy=0;entryX=0;entryY=0.5;entryDx=0;entryDy=0;" edge="1" parent="1" source="cBh7_KmrogOZhqfkVuFA-90" target="cBh7_KmrogOZhqfkVuFA-75">
          <mxGeometry width="100" height="100" relative="1" as="geometry">
            <mxPoint x="130" y="495" as="sourcePoint" />
            <mxPoint x="260" y="485" as="targetPoint" />
          </mxGeometry>
        </mxCell>
        <mxCell id="cBh7_KmrogOZhqfkVuFA-67" value="Distrito" style="shape=table;startSize=30;container=1;collapsible=1;childLayout=tableLayout;fixedRows=1;rowLines=0;fontStyle=1;align=center;resizeLast=1;fillColor=#CCCCCC;" vertex="1" parent="1">
          <mxGeometry x="350" y="340" width="180" height="100" as="geometry" />
        </mxCell>
        <mxCell id="cBh7_KmrogOZhqfkVuFA-68" value="" style="shape=partialRectangle;collapsible=0;dropTarget=0;pointerEvents=0;fillColor=none;top=0;left=0;bottom=1;right=0;points=[[0,0.5],[1,0.5]];portConstraint=eastwest;" vertex="1" parent="cBh7_KmrogOZhqfkVuFA-67">
          <mxGeometry y="30" width="180" height="30" as="geometry" />
        </mxCell>
        <mxCell id="cBh7_KmrogOZhqfkVuFA-69" value="PK" style="shape=partialRectangle;connectable=0;fillColor=none;top=0;left=0;bottom=0;right=0;fontStyle=1;overflow=hidden;" vertex="1" parent="cBh7_KmrogOZhqfkVuFA-68">
          <mxGeometry width="30" height="30" as="geometry" />
        </mxCell>
        <mxCell id="cBh7_KmrogOZhqfkVuFA-70" value="ID" style="shape=partialRectangle;connectable=0;fillColor=none;top=0;left=0;bottom=0;right=0;align=left;spacingLeft=6;fontStyle=5;overflow=hidden;" vertex="1" parent="cBh7_KmrogOZhqfkVuFA-68">
          <mxGeometry x="30" width="150" height="30" as="geometry" />
        </mxCell>
        <mxCell id="cBh7_KmrogOZhqfkVuFA-71" value="" style="shape=partialRectangle;collapsible=0;dropTarget=0;pointerEvents=0;fillColor=none;top=0;left=0;bottom=0;right=0;points=[[0,0.5],[1,0.5]];portConstraint=eastwest;" vertex="1" parent="cBh7_KmrogOZhqfkVuFA-67">
          <mxGeometry y="60" width="180" height="30" as="geometry" />
        </mxCell>
        <mxCell id="cBh7_KmrogOZhqfkVuFA-72" value="" style="shape=partialRectangle;connectable=0;fillColor=none;top=0;left=0;bottom=0;right=0;editable=1;overflow=hidden;" vertex="1" parent="cBh7_KmrogOZhqfkVuFA-71">
          <mxGeometry width="30" height="30" as="geometry" />
        </mxCell>
        <mxCell id="cBh7_KmrogOZhqfkVuFA-73" value="nome" style="shape=partialRectangle;connectable=0;fillColor=none;top=0;left=0;bottom=0;right=0;align=left;spacingLeft=6;overflow=hidden;" vertex="1" parent="cBh7_KmrogOZhqfkVuFA-71">
          <mxGeometry x="30" width="150" height="30" as="geometry" />
        </mxCell>
        <mxCell id="cBh7_KmrogOZhqfkVuFA-54" value="Grupo" style="shape=table;startSize=30;container=1;collapsible=1;childLayout=tableLayout;fixedRows=1;rowLines=0;fontStyle=1;align=center;resizeLast=1;fillColor=#CCCCCC;" vertex="1" parent="1">
          <mxGeometry x="350" y="190" width="180" height="100" as="geometry" />
        </mxCell>
        <mxCell id="cBh7_KmrogOZhqfkVuFA-55" value="" style="shape=partialRectangle;collapsible=0;dropTarget=0;pointerEvents=0;fillColor=none;top=0;left=0;bottom=1;right=0;points=[[0,0.5],[1,0.5]];portConstraint=eastwest;" vertex="1" parent="cBh7_KmrogOZhqfkVuFA-54">
          <mxGeometry y="30" width="180" height="30" as="geometry" />
        </mxCell>
        <mxCell id="cBh7_KmrogOZhqfkVuFA-56" value="PK" style="shape=partialRectangle;connectable=0;fillColor=none;top=0;left=0;bottom=0;right=0;fontStyle=1;overflow=hidden;" vertex="1" parent="cBh7_KmrogOZhqfkVuFA-55">
          <mxGeometry width="30" height="30" as="geometry" />
        </mxCell>
        <mxCell id="cBh7_KmrogOZhqfkVuFA-57" value="ID" style="shape=partialRectangle;connectable=0;fillColor=none;top=0;left=0;bottom=0;right=0;align=left;spacingLeft=6;fontStyle=5;overflow=hidden;" vertex="1" parent="cBh7_KmrogOZhqfkVuFA-55">
          <mxGeometry x="30" width="150" height="30" as="geometry" />
        </mxCell>
        <mxCell id="cBh7_KmrogOZhqfkVuFA-58" value="" style="shape=partialRectangle;collapsible=0;dropTarget=0;pointerEvents=0;fillColor=none;top=0;left=0;bottom=0;right=0;points=[[0,0.5],[1,0.5]];portConstraint=eastwest;" vertex="1" parent="cBh7_KmrogOZhqfkVuFA-54">
          <mxGeometry y="60" width="180" height="30" as="geometry" />
        </mxCell>
        <mxCell id="cBh7_KmrogOZhqfkVuFA-59" value="" style="shape=partialRectangle;connectable=0;fillColor=none;top=0;left=0;bottom=0;right=0;editable=1;overflow=hidden;" vertex="1" parent="cBh7_KmrogOZhqfkVuFA-58">
          <mxGeometry width="30" height="30" as="geometry" />
        </mxCell>
        <mxCell id="cBh7_KmrogOZhqfkVuFA-60" value="nome" style="shape=partialRectangle;connectable=0;fillColor=none;top=0;left=0;bottom=0;right=0;align=left;spacingLeft=6;overflow=hidden;" vertex="1" parent="cBh7_KmrogOZhqfkVuFA-58">
          <mxGeometry x="30" width="150" height="30" as="geometry" />
        </mxCell>
        <mxCell id="cBh7_KmrogOZhqfkVuFA-74" value="Capitulo" style="shape=table;startSize=30;container=1;collapsible=1;childLayout=tableLayout;fixedRows=1;rowLines=0;fontStyle=1;align=center;resizeLast=1;fillColor=#CCCCCC;" vertex="1" parent="1">
          <mxGeometry x="350" y="490" width="180" height="100" as="geometry" />
        </mxCell>
        <mxCell id="cBh7_KmrogOZhqfkVuFA-75" value="" style="shape=partialRectangle;collapsible=0;dropTarget=0;pointerEvents=0;fillColor=none;top=0;left=0;bottom=1;right=0;points=[[0,0.5],[1,0.5]];portConstraint=eastwest;" vertex="1" parent="cBh7_KmrogOZhqfkVuFA-74">
          <mxGeometry y="30" width="180" height="30" as="geometry" />
        </mxCell>
        <mxCell id="cBh7_KmrogOZhqfkVuFA-76" value="PK" style="shape=partialRectangle;connectable=0;fillColor=none;top=0;left=0;bottom=0;right=0;fontStyle=1;overflow=hidden;" vertex="1" parent="cBh7_KmrogOZhqfkVuFA-75">
          <mxGeometry width="30" height="30" as="geometry" />
        </mxCell>
        <mxCell id="cBh7_KmrogOZhqfkVuFA-77" value="ID" style="shape=partialRectangle;connectable=0;fillColor=none;top=0;left=0;bottom=0;right=0;align=left;spacingLeft=6;fontStyle=5;overflow=hidden;" vertex="1" parent="cBh7_KmrogOZhqfkVuFA-75">
          <mxGeometry x="30" width="150" height="30" as="geometry" />
        </mxCell>
        <mxCell id="cBh7_KmrogOZhqfkVuFA-78" value="" style="shape=partialRectangle;collapsible=0;dropTarget=0;pointerEvents=0;fillColor=none;top=0;left=0;bottom=0;right=0;points=[[0,0.5],[1,0.5]];portConstraint=eastwest;" vertex="1" parent="cBh7_KmrogOZhqfkVuFA-74">
          <mxGeometry y="60" width="180" height="30" as="geometry" />
        </mxCell>
        <mxCell id="cBh7_KmrogOZhqfkVuFA-79" value="" style="shape=partialRectangle;connectable=0;fillColor=none;top=0;left=0;bottom=0;right=0;editable=1;overflow=hidden;" vertex="1" parent="cBh7_KmrogOZhqfkVuFA-78">
          <mxGeometry width="30" height="30" as="geometry" />
        </mxCell>
        <mxCell id="cBh7_KmrogOZhqfkVuFA-80" value="nome" style="shape=partialRectangle;connectable=0;fillColor=none;top=0;left=0;bottom=0;right=0;align=left;spacingLeft=6;overflow=hidden;" vertex="1" parent="cBh7_KmrogOZhqfkVuFA-78">
          <mxGeometry x="30" width="150" height="30" as="geometry" />
        </mxCell>
      </root>
    </mxGraphModel>
  </diagram>
</mxfile>
